<?xml version="1.0" encoding="UTF-8" standalone="no"?>
<svg
   width="91.940536"
   height="60.221973"
   fill="#ff7300"
   version="1.1"
   viewBox="0 0 252.83648 120.44394"
   id="svg836"
   sodipodi:docname="cimd.svg"
   inkscape:version="1.1.2 (b8e25be8, 2022-02-05)"
   xmlns:inkscape="http://www.inkscape.org/namespaces/inkscape"
   xmlns:sodipodi="http://sodipodi.sourceforge.net/DTD/sodipodi-0.dtd"
   xmlns="http://www.w3.org/2000/svg"
   xmlns:svg="http://www.w3.org/2000/svg">
  <defs
     id="defs840" />
  <sodipodi:namedview
     id="namedview838"
     pagecolor="#ffffff"
     bordercolor="#666666"
     borderopacity="1.0"
     inkscape:pageshadow="2"
     inkscape:pageopacity="0.0"
     inkscape:pagecheckerboard="0"
     showgrid="false"
     inkscape:zoom="5.9194641"
     inkscape:cx="44.683099"
     inkscape:cy="40.290809"
     inkscape:window-width="1496"
     inkscape:window-height="905"
     inkscape:window-x="0"
     inkscape:window-y="34"
     inkscape:window-maximized="0"
     inkscape:current-layer="svg836"
     fit-margin-top="0"
     fit-margin-left="0"
     fit-margin-right="0"
     fit-margin-bottom="0" />
  <g
     aria-label="{ }"
     id="text826"
     style="font-size:174.112px;line-height:1.25;font-family:Geo;stroke-width:3.26452"
     transform="translate(-10.737824,-9.47463)">
    <path
       d="M 90.652512,152.50182 H 77.900168 q -15.217797,0 -24.739547,-8.50156 -9.436734,-8.41655 -9.436734,-24.39948 v -12.66733 q 0,-14.367643 -7.056297,-22.444128 -7.056297,-8.1615 -21.593969,-8.1615 H 10.737824 V 63.065385 h 4.335797 q 14.537672,0 21.593969,-8.076484 7.056297,-8.1615 7.056297,-22.529141 V 19.792432 q 0,-15.9829375 9.436734,-24.3994843 9.52175,-8.5015627 24.739547,-8.5015627 H 90.652512 V -1.3764586 H 80.96073 q -11.562125,0 -16.833093,5.3559844 -5.185953,5.3559843 -5.185953,17.2581722 v 14.877734 q 0,11.817172 -6.546203,19.893656 -6.546204,7.991469 -18.193344,12.667328 v 2.040375 q 11.64714,4.67586 18.193344,12.752344 6.546203,7.991469 6.546203,19.808645 v 14.87773 q 0,11.90219 5.185953,17.25817 5.270968,5.35599 16.833093,5.35599 h 9.691782 z"
       id="path2110" />
    <path
       d="m 263.5743,76.327822 h -4.3358 q -14.53767,0 -21.59397,8.1615 -7.05629,8.076485 -7.05629,22.444128 v 12.66733 q 0,15.98293 -9.52175,24.39948 -9.43674,8.50156 -24.65454,8.50156 h -12.75234 v -11.73215 h 9.69178 q 11.56213,0 16.74808,-5.35599 5.27097,-5.35598 5.27097,-17.25817 v -14.87773 q 0,-11.817176 6.5462,-19.808645 6.5462,-8.076484 18.19335,-12.752344 v -2.040375 q -11.64715,-4.675859 -18.19335,-12.667328 -6.5462,-8.076484 -6.5462,-19.893656 V 21.237698 q 0,-11.9021879 -5.27097,-17.2581722 -5.18595,-5.3559844 -16.74808,-5.3559844 h -9.69178 V -13.108615 h 12.75234 q 15.2178,0 24.65454,8.5015627 9.52175,8.4165468 9.52175,24.3994843 V 32.45976 q 0,14.367641 7.05629,22.529141 7.0563,8.076484 21.59397,8.076484 h 4.3358 z"
       id="path2112" />
  </g>
  <path
     d="M 137.5963,83.002838 V 71.296133 L 114.18312,91.7831 137.5963,112.27008 v -11.70671 h 17.55958 V 83.003788 Z M 184.42264,68.369456 161.00947,47.882485 V 59.58919 h -17.55958 v 17.559583 h 17.55958 V 88.855478 Z M 182.43247,28.742871 170.72577,8.489758 c -0.7024,-1.287766 -2.22427,-1.814482 -3.57056,-1.287766 l -14.57522,5.853353 c -2.9852,-2.399842 -6.20449,-4.331491 -9.8921,-5.853353 l -2.16575,-15.394313 a 2.9618145,2.9618145 0 0 0 -2.92667,-2.458365 h -23.41318 c -1.46334,0 -2.69258,1.053599 -2.92667,2.458365 l -2.16575,15.511836 c -3.68761,1.521862 -6.84838,3.453511 -9.892104,5.853353 L 84.915763,7.202467 c -1.34629,-0.5268 -2.926677,0 -3.57056,1.287766 L 69.638498,28.743346 c -0.760931,1.229242 -0.468263,2.868152 0.643871,3.746132 l 12.11673,9.54096 c -0.234132,1.931649 -0.40974,3.921703 -0.40974,5.853352 0,1.931649 0.175608,3.921704 0.40974,5.853353 l -12.350589,9.54096 c -1.17067,0.878003 -1.463338,2.51689 -0.702395,3.746132 l 11.706706,20.253113 c 0.643859,1.580386 2.341317,2.224269 3.863179,1.580386 l 14.633386,-5.853353 c 1.404814,1.112135 2.926674,2.165745 4.448534,3.102249 l 20.54514,-17.559584 a 20.603308,20.603308 0 0 1 -19.1408,-21.833143 c 0.87801,-11.296918 10.65304,-19.842376 21.94948,-19.023277 8.42877,0.526799 15.62817,6.263021 18.14483,14.340168 h 23.88207 l 12.35059,-9.54096 c 1.11214,-0.878003 1.40482,-2.51689 0.70241,-3.746132"
     stroke-width="5.85335"
     id="path828" />
  <g
     aria-label="cimd"
     id="text832"
     style="font-size:29.3333px;line-height:1.25;font-family:Geo;stroke-width:3.26452"
     transform="translate(-10.737824,-9.47463)">
    <path
       d="m 109.16096,152.73721 q -2.10547,0 -3.85286,-0.5013 -1.73307,-0.5013 -3.02213,-1.54687 -1.27474,-1.04557 -1.97656,-2.63542 -0.701827,-1.58984 -0.701827,-3.72395 0,-2.2487 0.744787,-3.88151 0.75912,-1.63281 2.10547,-2.70702 1.30338,-1.01693 3.00781,-1.48959 1.70442,-0.47265 3.53776,-0.47265 1.64713,0 3.03645,0.35807 1.38932,0.35807 2.59245,0.93099 v 4.39713 h -0.73047 q -0.30078,-0.25781 -0.73047,-0.60156 -0.41536,-0.34375 -1.03125,-0.67318 -0.58724,-0.3151 -1.28906,-0.51562 -0.70182,-0.21485 -1.63281,-0.21485 -2.0625,0 -3.17968,1.31771 -1.10287,1.30338 -1.10287,3.55208 0,2.32031 1.13151,3.52343 1.14583,1.20313 3.23698,1.20313 0.97395,0 1.74739,-0.21485 0.78776,-0.22916 1.30338,-0.52994 0.48698,-0.28646 0.85938,-0.60157 0.37239,-0.3151 0.6875,-0.61588 h 0.73047 v 4.39713 q -1.21745,0.57292 -2.54948,0.90234 -1.31771,0.34375 -2.92187,0.34375 z"
       style="font-weight:bold"
       id="path913" />
    <path
       d="m 123.18308,152.30753 h -5.15625 v -16.08462 h 5.15625 z m 0.14323,-18.37629 h -5.44271 v -3.91015 h 5.44271 z"
       style="font-weight:bold"
       id="path915" />
    <path
       d="m 143.77941,140.9065 v 11.40103 h -5.18489 v -8.03515 q 0,-1.17448 -0.0573,-1.99088 -0.0573,-0.83073 -0.31511,-1.34636 -0.25781,-0.51562 -0.78776,-0.74479 -0.51562,-0.24349 -1.46093,-0.24349 -0.75912,0 -1.47526,0.31511 -0.71615,0.30078 -1.28906,0.64453 v 11.40103 h -5.15625 v -16.08462 h 5.15625 v 1.77604 q 1.33203,-1.04557 2.54947,-1.63281 1.21745,-0.58724 2.69271,-0.58724 1.58984,0 2.80729,0.71614 1.21744,0.70183 1.90494,2.07682 1.54688,-1.30338 3.00781,-2.04817 1.46094,-0.74479 2.86458,-0.74479 2.60677,0 3.95312,1.56119 1.36068,1.5612 1.36068,4.4974 v 10.47004 h -5.18489 v -8.03515 q 0,-1.1888 -0.0573,-2.00521 -0.043,-0.8164 -0.30079,-1.33203 -0.24348,-0.51562 -0.77343,-0.74479 -0.52995,-0.24349 -1.48958,-0.24349 -0.64453,0 -1.26042,0.22917 -0.61588,0.21484 -1.5039,0.73047 z"
       style="font-weight:bold"
       id="path917" />
    <path
       d="m 174.74552,152.30753 h -5.15625 v -1.67578 q -1.33203,1.08854 -2.49218,1.60416 -1.16016,0.51563 -2.67838,0.51563 -2.9362,0 -4.69792,-2.26302 -1.76171,-2.26302 -1.76171,-6.10156 0,-2.04817 0.58724,-3.62369 0.60156,-1.58984 1.63281,-2.72135 0.97396,-1.07422 2.36328,-1.66146 1.38932,-0.60156 2.77864,-0.60156 1.44661,0 2.36328,0.3151 0.93099,0.30078 1.90494,0.77344 v -6.84635 h 5.15625 z m -5.15625,-4.4401 v -7.89192 q -0.54427,-0.22917 -1.14583,-0.32943 -0.60156,-0.10026 -1.10286,-0.10026 -2.03385,0 -3.05078,1.27474 -1.01693,1.26041 -1.01693,3.50911 0,2.36328 0.81641,3.4375 0.8164,1.05989 2.62109,1.05989 0.70182,0 1.48958,-0.25781 0.78776,-0.27214 1.38932,-0.70182 z"
       style="font-weight:bold"
       id="path919" />
  </g>
</svg>
