<?xml version="1.0" encoding="UTF-8" standalone="no"?>
<svg
   width="100"
   height="70"
   fill="#ff7300"
   version="1.1"
   viewBox="0 0 275 140"
   id="svg836"
   sodipodi:docname="cimd.svg"
   inkscape:version="1.1.2 (b8e25be8, 2022-02-05)"
   xmlns:inkscape="http://www.inkscape.org/namespaces/inkscape"
   xmlns:sodipodi="http://sodipodi.sourceforge.net/DTD/sodipodi-0.dtd"
   xmlns="http://www.w3.org/2000/svg"
   xmlns:svg="http://www.w3.org/2000/svg">
  <defs
     id="defs840" />
  <sodipodi:namedview
     id="namedview838"
     pagecolor="#ffffff"
     bordercolor="#666666"
     borderopacity="1.0"
     inkscape:pageshadow="2"
     inkscape:pageopacity="0.0"
     inkscape:pagecheckerboard="0"
     showgrid="false"
     inkscape:zoom="5.9194641"
     inkscape:cx="48.568586"
     inkscape:cy="43.669494"
     inkscape:window-width="1496"
     inkscape:window-height="905"
     inkscape:window-x="0"
     inkscape:window-y="34"
     inkscape:window-maximized="0"
     inkscape:current-layer="svg836" />
  <text
     x="-3.9698787"
     y="119.1757"
     font-family="Geo"
     font-size="174.112px"
     stroke-width="3.26452"
     style="line-height:1.25"
     xml:space="preserve"
     id="text826"><tspan
       x="-3.9698787"
       y="119.1757"
       font-size="174.112px"
       stroke-width="3.26452"
       id="tspan824">{ }</tspan></text>
  <path
     d="M 148.33412,92.477468 V 80.770763 l -23.41318,20.486967 23.41318,20.48698 V 110.038 H 165.8937 V 92.478418 Z M 195.16046,77.844086 171.74729,57.357115 V 69.06382 h -17.55958 v 17.559583 h 17.55958 v 11.706705 z m -1.99017,-39.626585 -11.7067,-20.253113 c -0.7024,-1.287766 -2.22427,-1.814482 -3.57056,-1.287766 l -14.57522,5.853353 c -2.9852,-2.399842 -6.20449,-4.331491 -9.8921,-5.853353 L 151.25996,1.2823092 a 2.9618145,2.9618145 0 0 0 -2.92667,-2.4583654 h -23.41318 c -1.46334,0 -2.69258,1.05359876 -2.92667,2.4583654 l -2.16575,15.5118358 c -3.68761,1.521862 -6.84838,3.453511 -9.8921,5.853353 L 95.653587,16.677097 c -1.34629,-0.5268 -2.926677,0 -3.57056,1.287766 L 80.376322,38.217976 c -0.760931,1.229242 -0.468263,2.868152 0.643871,3.746132 l 12.11673,9.54096 c -0.234132,1.931649 -0.40974,3.921703 -0.40974,5.853352 0,1.931649 0.175608,3.921704 0.40974,5.853353 l -12.350589,9.54096 c -1.17067,0.878003 -1.463338,2.51689 -0.702395,3.746132 l 11.706706,20.253113 c 0.643859,1.580386 2.341317,2.224269 3.863179,1.580386 l 14.633386,-5.853353 c 1.40481,1.112135 2.92667,2.165745 4.44853,3.102249 l 20.54514,-17.559584 a 20.603308,20.603308 0 0 1 -19.1408,-21.833143 c 0.87801,-11.296918 10.65304,-19.842376 21.94948,-19.023277 8.42877,0.526799 15.62817,6.263021 18.14483,14.340168 h 23.88207 l 12.35059,-9.54096 c 1.11214,-0.878003 1.40482,-2.51689 0.70241,-3.746132"
     stroke-width="5.85335"
     id="path828" />
  <text
     x="98.347168"
     y="152.30753"
     font-family="Geo"
     font-size="34.8212px"
     stroke-width="3.26452"
     style="font-size:29.3333px;line-height:1.25"
     xml:space="preserve"
     id="text832"><tspan
       x="98.347168"
       y="152.30753"
       font-size="34.8212px"
       stroke-width="3.26452"
       id="tspan830"
       style="font-weight:bold;font-size:29.3333px">cimd</tspan></text>
</svg>
